<?xml version="1.0" encoding="UTF-8"?>
<svg version="1.1" xmlns="http://www.w3.org/2000/svg" width="512" height="512">
<path d="M0 0 C0.91297852 0.16628906 1.82595703 0.33257812 2.76660156 0.50390625 C44.3986228 8.16363077 83.16052206 26.40624883 116 53 C116.54446777 53.44005371 117.08893555 53.88010742 117.64990234 54.33349609 C131.72173929 65.81174863 144.93680647 78.57719064 156 93 C156.75925781 93.93070312 157.51851563 94.86140625 158.30078125 95.8203125 C184.1596216 128.07168914 200.62794761 167.52514646 208 208 C208.16371094 208.83563477 208.32742188 209.67126953 208.49609375 210.53222656 C213.78656862 238.24163521 213.41678597 270.35093304 208 298 C207.83371094 298.91297852 207.66742188 299.82595703 207.49609375 300.76660156 C199.83636923 342.3986228 181.59375117 381.16052206 155 414 C154.55994629 414.54446777 154.11989258 415.08893555 153.66650391 415.64990234 C142.18825137 429.72173929 129.42280936 442.93680647 115 454 C114.06929688 454.75925781 113.13859375 455.51851563 112.1796875 456.30078125 C79.92831086 482.1596216 40.47485354 498.62794761 0 506 C-0.83563477 506.16371094 -1.67126953 506.32742188 -2.53222656 506.49609375 C-30.24163521 511.78656862 -62.35093304 511.41678597 -90 506 C-90.91297852 505.83371094 -91.82595703 505.66742188 -92.76660156 505.49609375 C-134.3986228 497.83636923 -173.16052206 479.59375117 -206 453 C-206.54446777 452.55994629 -207.08893555 452.11989258 -207.64990234 451.66650391 C-221.72173929 440.18825137 -234.93680647 427.42280936 -246 413 C-246.75925781 412.06929688 -247.51851562 411.13859375 -248.30078125 410.1796875 C-274.1596216 377.92831086 -290.62794761 338.47485354 -298 298 C-298.16371094 297.16436523 -298.32742188 296.32873047 -298.49609375 295.46777344 C-303.78656862 267.75836479 -303.41678597 235.64906696 -298 208 C-297.83371094 207.08702148 -297.66742188 206.17404297 -297.49609375 205.23339844 C-289.83636923 163.6013772 -271.59375117 124.83947794 -245 92 C-244.55994629 91.45553223 -244.11989258 90.91106445 -243.66650391 90.35009766 C-232.18825137 76.27826071 -219.42280936 63.06319353 -205 52 C-204.06929688 51.24074219 -203.13859375 50.48148438 -202.1796875 49.69921875 C-169.92831086 23.8403784 -130.47485354 7.37205239 -90 0 C-89.16436523 -0.16371094 -88.32873047 -0.32742188 -87.46777344 -0.49609375 C-59.75836479 -5.78656862 -27.64906696 -5.41678597 0 0 Z M-103 52 C-104.12317627 52.31445068 -104.12317627 52.31445068 -105.26904297 52.63525391 C-126.88347036 58.87878096 -146.67294957 69.06325852 -165 82 C-165.60263672 82.42023438 -166.20527344 82.84046875 -166.82617188 83.2734375 C-173.81642524 88.18061183 -180.10744658 93.67273535 -186.30859375 99.51953125 C-189 102 -189 102 -191.6484375 104.10546875 C-195.24865275 107.00597439 -198.02674323 110.47614013 -201 114 C-201.75410156 114.86625 -202.50820312 115.7325 -203.28515625 116.625 C-209.67784662 124.08145025 -215.33224075 131.91226579 -220.74658203 140.10400391 C-221.86043649 141.78888776 -222.98968724 143.46357063 -224.12109375 145.13671875 C-252.46727679 188.76816749 -260.29312028 245.13261408 -249.8984375 295.53515625 C-248.75566403 300.73446898 -247.43568384 305.87432962 -246 311 C-245.68554932 312.12317627 -245.68554932 312.12317627 -245.36474609 313.26904297 C-239.12121904 334.88347036 -228.93674148 354.67294957 -216 373 C-215.57976562 373.60263672 -215.15953125 374.20527344 -214.7265625 374.82617188 C-209.81938817 381.81642524 -204.32726465 388.10744658 -198.48046875 394.30859375 C-196 397 -196 397 -193.89453125 399.6484375 C-190.99402561 403.24865275 -187.52385987 406.02674323 -184 409 C-183.13375 409.75410156 -182.2675 410.50820313 -181.375 411.28515625 C-173.91854975 417.67784662 -166.08773421 423.33224075 -157.89599609 428.74658203 C-156.21111224 429.86043649 -154.53642937 430.98968724 -152.86328125 432.12109375 C-109.23183251 460.46727679 -52.86738592 468.29312028 -2.46484375 457.8984375 C2.73446898 456.75566403 7.87432962 455.43568384 13 454 C13.74878418 453.79036621 14.49756836 453.58073242 15.26904297 453.36474609 C36.88347036 447.12121904 56.67294957 436.93674148 75 424 C75.60263672 423.57976562 76.20527344 423.15953125 76.82617188 422.7265625 C83.81642524 417.81938817 90.10744658 412.32726465 96.30859375 406.48046875 C99 404 99 404 101.6484375 401.89453125 C105.24865275 398.99402561 108.02674323 395.52385987 111 392 C111.75410156 391.13375 112.50820313 390.2675 113.28515625 389.375 C119.67784662 381.91854975 125.33224075 374.08773421 130.74658203 365.89599609 C131.86043649 364.21111224 132.98968724 362.53642937 134.12109375 360.86328125 C162.46727679 317.23183251 170.29312028 260.86738592 159.8984375 210.46484375 C158.75566403 205.26553102 157.43568384 200.12567038 156 195 C155.79036621 194.25121582 155.58073242 193.50243164 155.36474609 192.73095703 C149.12121904 171.11652964 138.93674148 151.32705043 126 133 C125.36964844 132.09604492 125.36964844 132.09604492 124.7265625 131.17382812 C119.81938817 124.18357476 114.32726465 117.89255342 108.48046875 111.69140625 C106 109 106 109 103.89453125 106.3515625 C100.99402561 102.75134725 97.52385987 99.97325677 94 97 C93.13375 96.24589844 92.2675 95.49179688 91.375 94.71484375 C83.91854975 88.32215338 76.08773421 82.66775925 67.89599609 77.25341797 C66.21111224 76.13956351 64.53642937 75.01031276 62.86328125 73.87890625 C14.3954847 42.39067764 -48.16482305 36.64084275 -103 52 Z " fill="#000000" transform="translate(301,3)"/>
<path d="M0 0 C5.46895322 5.1328723 8.04094399 11.6555758 8.3125 19.0625 C7.50004622 34.98659408 -8.64125573 46.47859632 -19.21166992 57.04443359 C-20.60245688 58.43821842 -21.99304058 59.83220609 -23.38343811 61.22637939 C-27.13283804 64.98455303 -30.88541841 68.7395348 -34.63888717 72.49364424 C-36.98652116 74.84199175 -39.33344055 77.191051 -41.68010902 79.54036331 C-49.87365516 87.7431362 -58.06975517 95.94334712 -66.26831055 104.14111328 C-73.90228608 111.7744866 -81.53064947 119.4134369 -89.15643996 127.05498636 C-95.71699874 133.62861787 -102.28140428 140.19839112 -108.84882241 146.76516974 C-112.76584031 150.68193286 -116.68129463 154.60022817 -120.59288597 158.52241135 C-124.26650517 162.20570863 -127.94489067 165.88417815 -131.62698936 169.55899811 C-132.97593728 170.9069003 -134.32318322 172.25650828 -135.66858292 173.60795212 C-137.50717981 175.45427244 -139.35185763 177.29429963 -141.19816589 179.13290405 C-141.72706443 179.66694615 -142.25596296 180.20098824 -142.80088872 180.75121343 C-149.02869265 186.92185525 -154.81082972 190.43387312 -163.625 191.25 C-180.45605184 189.79904726 -191.96998647 173.42039094 -203.2734375 162.1875 C-204.07568378 161.39057739 -204.87793007 160.59365479 -205.70448685 159.77258301 C-209.93980355 155.56381918 -214.17155779 151.35150686 -218.40087891 147.13671875 C-221.88745821 143.66353053 -225.38118451 140.19777887 -228.88134766 136.73828125 C-233.13153067 132.53744736 -237.36927727 128.32444133 -241.59840775 124.10241699 C-243.20406407 122.50345651 -244.81395877 120.90873993 -246.4282341 119.31848145 C-248.68465925 117.0937623 -250.92470723 114.85368868 -253.16162109 112.609375 C-253.82348419 111.96391724 -254.48534729 111.31845947 -255.16726685 110.65344238 C-260.28475015 105.46659282 -263.58480356 99.97269902 -264.78125 92.71484375 C-264.6965671 85.01928496 -263.76771248 79.64615303 -258.37890625 73.96484375 C-251.71604897 67.83098459 -246.48826023 66.44400062 -237.4609375 66.63671875 C-223.76257895 67.91989832 -213.10867347 82.93648376 -203.8984375 92.19140625 C-202.74709775 93.34461636 -201.59553311 94.49760197 -200.4437561 95.65037537 C-197.4463125 98.65159553 -194.45188687 101.65580855 -191.45812988 104.66070557 C-188.38930683 107.73984863 -185.31756974 110.81608179 -182.24609375 113.89257812 C-176.24457778 119.90474541 -170.24625439 125.92008507 -164.25 131.9375 C-157.39333473 126.32632934 -151.24512139 120.03696586 -145.01586914 113.75341797 C-143.78670221 112.51741187 -142.55727937 111.28166022 -141.32762146 110.04614258 C-138.69036421 107.39560722 -136.05454058 104.74365734 -133.41972542 102.09069443 C-129.24982213 97.89284186 -125.07440847 93.7004998 -120.89781189 89.50930786 C-119.46507066 88.07142357 -118.03233623 86.63353251 -116.59960842 85.19563484 C-115.88242323 84.47586409 -115.16523803 83.75609334 -114.42631996 83.01451135 C-104.7116002 73.26380145 -95.00166607 63.50836338 -85.30200195 53.74267578 C-78.74751388 47.1436617 -72.18590502 40.55181825 -65.61616796 33.96798432 C-62.14417698 30.48793221 -58.67598258 27.00427469 -55.2165699 23.51171494 C-51.96407652 20.22810796 -48.70234567 16.95396795 -45.43338966 13.68675232 C-44.23830348 12.48897694 -43.04663301 11.28778183 -41.85873795 10.0828743 C-29.61207019 -2.33147863 -16.68198047 -10.58664145 0 0 Z " fill="#000000" transform="translate(384.25,163.0625)"/>
</svg>
