<?xml version="1.0" standalone="no"?>
<!DOCTYPE svg PUBLIC "-//W3C//DTD SVG 20010904//EN"
 "http://www.w3.org/TR/2001/REC-SVG-20010904/DTD/svg10.dtd">
<svg version="1.0" xmlns="http://www.w3.org/2000/svg"
 width="512.000000pt" height="512.000000pt" viewBox="0 0 512.000000 512.000000"
 preserveAspectRatio="xMidYMid meet">

<g transform="translate(0.000000,512.000000) scale(0.100000,-0.100000)"
fill="#000000" stroke="none">
<path d="M1163 4445 c-188 -24 -347 -46 -353 -50 -10 -6 -460 -596 -492 -644
-9 -14 -84 -259 -167 -544 l-151 -517 215 -662 c119 -364 217 -663 218 -664 1
0 281 -160 622 -354 341 -194 632 -359 646 -368 26 -15 31 -12 448 267 395
264 460 304 1053 637 l631 355 639 206 c438 142 640 212 643 223 3 8 -156 330
-353 715 l-358 699 -674 208 c-371 114 -682 208 -691 208 -13 0 -455 -170
-905 -347 -6 -2 -109 110 -230 249 -316 364 -374 428 -387 427 -7 -1 -166 -20
-354 -44z m321 -27 c-4 -13 -51 -166 -105 -341 -54 -176 -99 -321 -102 -323
-2 -2 -205 -3 -451 -2 l-448 3 228 301 229 301 320 40 c176 22 324 41 328 42
5 0 5 -9 1 -21z m320 -313 c147 -168 263 -305 259 -305 -5 0 -168 -16 -363
-35 -195 -19 -358 -35 -362 -35 -14 0 -8 27 57 241 107 351 135 439 140 439 2
0 123 -137 269 -305z m1169 -262 c-18 -148 -40 -334 -50 -416 -9 -81 -20 -146
-23 -145 -20 9 -729 492 -726 495 4 5 818 332 827 333 3 0 -10 -120 -28 -267z
m780 56 c323 -101 586 -187 585 -191 -8 -21 -722 -818 -728 -811 -6 7 -507
1147 -526 1197 -5 14 -1 14 37 2 24 -7 308 -96 632 -197z m-448 -427 c136
-310 245 -565 243 -567 -3 -3 -586 310 -596 320 -3 3 17 189 44 415 27 225 52
406 56 402 4 -4 118 -261 253 -570z m-1258 266 c-2 -7 -66 -231 -141 -498
-178 -628 -167 -592 -173 -587 -9 10 -391 1022 -386 1027 4 5 608 67 672 69
23 1 32 -3 28 -11z m447 -243 c206 -137 376 -252 376 -255 0 -7 -1061 -553
-1065 -548 -4 3 271 992 290 1046 3 8 9 12 14 10 5 -2 178 -115 385 -253z
m-1244 199 c0 -12 -363 -694 -369 -693 -6 0 -493 674 -499 690 -2 5 191 9 432
9 240 0 436 -3 436 -6z m3513 -754 c157 -305 284 -556 282 -558 -3 -3 -1385
465 -1391 471 -4 4 -21 -15 411 471 l318 359 48 -94 c26 -52 176 -344 332
-649z m-4167 372 c202 -279 248 -348 235 -354 -31 -14 -762 -230 -766 -227 -2
3 58 214 133 471 75 257 138 465 141 462 3 -3 118 -161 257 -352z m893 -156
c100 -263 181 -480 179 -482 -4 -3 -706 268 -733 283 -11 6 28 88 172 362 137
259 189 348 194 334 4 -10 88 -233 188 -497z m1278 -499 c-67 -285 -126 -519
-131 -519 -10 -2 -827 494 -822 499 13 13 1071 551 1073 545 1 -4 -53 -240
-120 -525z m481 352 c163 -88 300 -163 305 -168 4 -4 -176 -162 -400 -352
-471 -398 -453 -383 -459 -376 -8 8 239 1057 249 1057 5 0 142 -72 305 -161z
m-2097 -576 c150 -269 282 -503 293 -522 11 -19 16 -32 11 -29 -205 117 -1344
784 -1353 792 -9 9 75 39 370 128 211 64 388 116 394 117 7 1 135 -218 285
-486z m219 303 c189 -74 346 -139 347 -143 3 -9 -194 -694 -202 -701 -2 -2
-10 7 -18 20 -27 43 -537 955 -543 972 -6 16 -4 16 32 1 22 -8 194 -75 384
-149z m2966 -166 c373 -127 679 -232 681 -234 3 -3 -1171 -384 -1174 -381 -2
1 -46 183 -98 406 -53 222 -98 412 -101 422 -3 9 -1 17 4 17 5 0 315 -104 688
-230z m-643 -196 c54 -229 97 -417 95 -419 -4 -5 -1007 140 -1013 146 -5 6
797 687 810 688 6 1 54 -186 108 -415z m-2925 -145 c378 -221 688 -403 690
-404 1 -1 -82 -36 -185 -78 -104 -42 -326 -132 -495 -200 l-307 -125 -197 592
c-108 325 -199 597 -202 604 -2 6 -1 12 3 12 3 0 316 -181 693 -401z m1451
101 c342 -207 400 -245 380 -251 -55 -17 -1030 -222 -1034 -217 -3 2 43 169
101 371 105 361 107 366 129 354 12 -7 203 -122 424 -257z m1040 -350 c267
-39 487 -70 490 -70 3 0 -253 -146 -569 -324 -316 -178 -576 -322 -578 -321
-3 2 65 701 73 752 3 18 13 34 23 36 20 6 -30 12 561 -73z m-633 13 c-3 -21
-19 -182 -36 -358 -17 -176 -34 -332 -38 -348 l-7 -27 -472 272 c-260 150
-473 275 -473 279 0 6 973 217 1008 218 22 1 23 -2 18 -36z m-1108 -220 c13
-24 176 -1052 169 -1059 -5 -5 -946 533 -1150 656 l-28 17 493 201 c271 110
496 201 500 201 4 1 11 -7 16 -16z m526 -278 c243 -140 450 -261 460 -268 16
-11 -23 -40 -368 -272 -212 -142 -387 -257 -390 -254 -2 2 -42 242 -88 532
-66 411 -81 526 -70 522 8 -3 213 -120 456 -260z"/>
</g>
</svg>
