<?xml version="1.0" standalone="no"?>
<!DOCTYPE svg PUBLIC "-//W3C//DTD SVG 20010904//EN"
 "http://www.w3.org/TR/2001/REC-SVG-20010904/DTD/svg10.dtd">
<svg version="1.0" xmlns="http://www.w3.org/2000/svg"
 width="512.000000pt" height="512.000000pt" viewBox="0 0 512.000000 512.000000"
 preserveAspectRatio="xMidYMid meet">

<g transform="translate(0.000000,512.000000) scale(0.100000,-0.100000)"
fill="#000000" stroke="none">
<path d="M1512 3607 c-811 -811 -1022 -1027 -1022 -1047 0 -37 2033 -2070
2070 -2070 37 0 2070 2033 2070 2070 0 37 -2033 2070 -2070 2070 -20 0 -236
-211 -1048 -1023z m998 448 l0 -405 -407 0 -408 0 405 405 c223 223 406 405
407 405 2 0 3 -182 3 -405z m510 0 l405 -405 -408 0 -407 0 0 405 c0 223 1
405 3 405 1 0 184 -182 407 -405z m-510 -937 l0 -433 -54 55 c-79 82 -717 752
-745 783 l-24 27 411 0 412 0 0 -432z m899 405 c-28 -31 -666 -701 -745 -783
l-54 -55 0 433 0 432 412 0 411 0 -24 -27z m-1889 -483 l0 -430 -432 0 -433 0
430 430 c236 237 431 430 432 430 2 0 3 -193 3 -430z m849 -352 l76 -78 -413
0 -412 0 0 430 0 429 337 -352 c185 -194 370 -387 412 -429z m1128 -75 c-2 -2
-186 -2 -410 -1 l-405 3 406 425 407 425 3 -424 c1 -233 1 -426 -1 -428z m538
427 l430 -430 -433 0 -432 0 0 430 c0 237 1 430 3 430 1 0 196 -193 432 -430z
m-2515 -960 c0 -236 -1 -430 -3 -430 -1 0 -196 194 -432 430 l-430 430 433 0
432 0 0 -430z m849 353 c-42 -43 -227 -236 -412 -430 l-337 -352 0 429 0 430
412 0 413 0 -76 -77z m1131 -353 l0 -429 -337 352 c-185 194 -370 387 -412
430 l-76 77 413 0 412 0 0 -430z m960 427 c0 -1 -193 -196 -430 -432 l-430
-430 0 433 0 432 430 0 c237 0 430 -1 430 -3z m-1953 -924 c-2 -2 -185 -2
-407 -1 l-403 3 404 423 404 423 3 -422 c1 -232 1 -424 -1 -426z m544 392
c184 -193 343 -361 353 -373 l19 -22 -406 0 -407 0 0 427 0 428 54 -55 c29
-30 203 -213 387 -405z m-541 -907 l0 -413 -405 405 c-223 223 -405 408 -405
412 0 5 182 8 405 8 l405 0 0 -412z m910 404 c0 -4 -182 -189 -405 -412 l-405
-405 0 413 0 412 405 0 c223 0 405 -3 405 -8z"/>
</g>
</svg>
