<?xml version="1.0" standalone="no"?>
<!DOCTYPE svg PUBLIC "-//W3C//DTD SVG 20010904//EN"
 "http://www.w3.org/TR/2001/REC-SVG-20010904/DTD/svg10.dtd">
<svg version="1.0" xmlns="http://www.w3.org/2000/svg"
 width="512.000000pt" height="512.000000pt" viewBox="0 0 512.000000 512.000000"
 preserveAspectRatio="xMidYMid meet">

<g transform="translate(0.000000,512.000000) scale(0.100000,-0.100000)"
fill="#22E58A" stroke="none">
<path d="M1403 4870 c-116 -24 -221 -107 -269 -213 -24 -53 -28 -74 -28 -147
0 -61 6 -101 21 -140 11 -30 186 -425 387 -878 202 -453 372 -848 379 -878 8
-40 8 -68 0 -107 -6 -30 -182 -438 -391 -908 -259 -581 -384 -874 -392 -916
-49 -253 165 -468 431 -431 105 14 148 41 424 272 391 327 1836 1637 1953
1770 78 89 114 218 93 332 -26 142 -48 169 -451 540 -922 851 -1675 1517
-1848 1636 -84 58 -217 87 -309 68z m192 -176 c117 -57 1069 -897 2067 -1827
178 -166 203 -203 203 -307 0 -112 -15 -132 -325 -419 -1024 -949 -1857 -1682
-1963 -1726 -50 -21 -152 -19 -203 4 -87 40 -136 142 -115 241 6 28 176 421
377 873 202 452 375 846 386 875 26 74 33 160 19 234 -9 43 -126 317 -373 873
-419 941 -406 911 -414 967 -16 114 60 215 179 237 57 11 103 4 162 -25z"/>
</g>
</svg>
