<?xml version="1.0" standalone="no"?>
<!DOCTYPE svg PUBLIC "-//W3C//DTD SVG 20010904//EN"
 "http://www.w3.org/TR/2001/REC-SVG-20010904/DTD/svg10.dtd">
<svg version="1.0" xmlns="http://www.w3.org/2000/svg"
 width="512.000000pt" height="512.000000pt" viewBox="0 0 512.000000 512.000000"
 preserveAspectRatio="xMidYMid meet">

<g transform="translate(0.000000,512.000000) scale(0.100000,-0.100000)"
fill="#000000" stroke="none">
<path d="M1265 4784 c-148 -36 -266 -161 -295 -313 -15 -79 -14 -4047 1 -4090
18 -51 99 -79 140 -48 9 7 172 210 364 452 695 878 709 895 771 931 64 38 161
43 739 44 l500 0 37 23 c44 27 71 60 86 107 23 73 162 784 162 828 0 54 -25
102 -67 129 -25 17 -69 18 -593 23 -563 5 -565 5 -623 28 -80 33 -168 116
-209 199 -58 119 -49 281 23 395 41 64 110 125 177 156 l57 27 680 5 c479 4
687 8 705 16 24 11 59 45 74 71 3 6 45 195 92 420 94 448 95 462 44 532 -61
83 74 76 -1450 78 -1152 1 -1364 -1 -1415 -13z"/>
</g>
</svg>
