<?xml version="1.0" standalone="no"?>
<!DOCTYPE svg PUBLIC "-//W3C//DTD SVG 20010904//EN"
 "http://www.w3.org/TR/2001/REC-SVG-20010904/DTD/svg10.dtd">
<svg version="1.0" xmlns="http://www.w3.org/2000/svg"
 width="512.000000pt" height="512.000000pt" viewBox="0 0 512.000000 512.000000"
 preserveAspectRatio="xMidYMid meet">

<g transform="translate(0.000000,512.000000) scale(0.100000,-0.100000)"
fill="#000000" stroke="none">
<path d="M4685 4098 c-11 -6 -225 -152 -477 -325 l-456 -313 -74 39 c-102 56
-323 143 -453 179 -539 151 -1107 115 -1624 -104 -420 -179 -826 -506 -1116
-899 -83 -112 -82 -109 -42 -168 181 -271 478 -562 776 -757 23 -16 15 -21
-390 -300 -496 -340 -489 -334 -489 -366 0 -62 49 -88 103 -56 41 24 4215
2892 4285 2944 41 30 52 45 52 66 0 33 -8 45 -37 61 -27 14 -33 13 -58 -1z
m-2072 -500 c21 -24 22 -56 2 -82 -11 -15 -39 -22 -120 -33 -195 -25 -344 -99
-468 -233 -104 -113 -187 -300 -187 -424 0 -71 -17 -112 -51 -126 -27 -11 -34
-11 -57 7 -24 18 -27 28 -30 83 -8 167 75 381 209 540 128 151 352 268 554
289 96 9 124 5 148 -21z m-774 -135 c-250 -259 -341 -602 -254 -951 28 -109
103 -269 164 -349 l40 -52 -92 -64 c-51 -35 -147 -101 -214 -147 l-123 -84
-112 76 c-154 104 -280 211 -428 365 -113 117 -250 283 -250 303 0 25 146 196
290 341 236 236 445 387 720 518 98 46 315 130 339 131 2 0 -34 -39 -80 -87z
m1556 20 c126 -50 227 -102 220 -113 -5 -9 -121 -89 -161 -113 -7 -4 -27 19
-50 56 -21 34 -76 101 -122 149 l-85 88 54 -16 c30 -9 95 -32 144 -51z m-753
-324 c113 -24 228 -111 280 -212 16 -33 17 -42 6 -52 -20 -18 -616 -425 -632
-431 -17 -6 -86 81 -110 140 -59 143 -29 315 76 431 96 106 240 153 380 124z"/>
<path d="M3945 3264 c-27 -19 -51 -38 -52 -42 -2 -4 14 -18 34 -32 92 -62 258
-208 373 -326 114 -118 250 -284 250 -304 0 -25 -146 -196 -290 -341 -235
-235 -420 -369 -695 -504 -580 -285 -1264 -310 -1858 -70 -76 31 -81 30 -156
-25 l-44 -32 79 -35 c287 -128 649 -203 973 -203 671 0 1289 267 1797 774 130
130 258 282 323 384 l34 53 -46 67 c-114 166 -296 368 -450 500 -90 77 -212
173 -219 171 -2 0 -25 -16 -53 -35z"/>
<path d="M3218 2767 c-179 -125 -319 -228 -337 -250 -54 -69 -135 -123 -213
-145 -20 -5 -179 -108 -354 -228 -362 -248 -341 -217 -189 -290 273 -131 588
-132 861 -5 294 138 497 399 565 726 24 114 14 406 -14 404 -7 0 -150 -96
-319 -212z"/>
</g>
</svg>
