<?xml version="1.0" standalone="no"?>
<!DOCTYPE svg PUBLIC "-//W3C//DTD SVG 20010904//EN"
 "http://www.w3.org/TR/2001/REC-SVG-20010904/DTD/svg10.dtd">
<svg version="1.0" xmlns="http://www.w3.org/2000/svg"
 width="512.000000pt" height="512.000000pt" viewBox="0 0 512.000000 512.000000"
 preserveAspectRatio="xMidYMid meet">

<g transform="translate(0.000000,512.000000) scale(0.100000,-0.100000)"
fill="#000000" stroke="none">
<path d="M1811 4943 c-40 -37 -1801 -3363 -1808 -3415 -5 -32 -1 -41 25 -68
l30 -30 482 0 482 0 29 29 c38 39 39 87 3 130 l-26 31 -379 0 c-245 0 -379 4
-379 10 0 15 1593 3020 1601 3020 7 0 559 -1035 559 -1048 0 -5 -392 -717
-871 -1583 -1081 -1954 -973 -1752 -965 -1794 4 -19 18 -43 33 -55 26 -20 28
-20 1885 -20 l1860 0 30 30 c26 26 30 37 25 68 -6 49 -409 808 -448 845 -33
30 -66 34 -107 13 -37 -19 -56 -57 -49 -95 4 -16 81 -169 172 -340 91 -171
165 -315 165 -321 0 -7 -511 -10 -1650 -10 -907 0 -1650 3 -1650 6 0 7 1670
3026 1680 3037 4 4 174 -306 378 -690 204 -384 382 -710 397 -725 71 -74 191
11 151 107 -8 18 -193 368 -411 779 l-396 745 292 531 c161 291 296 527 300
522 12 -12 1599 -3012 1599 -3022 0 -7 -530 -10 -1508 -10 -1665 0 -1539 5
-1562 -64 -13 -39 -2 -74 31 -105 l23 -21 1612 0 1613 0 28 24 c62 53 110 -48
-861 1786 -586 1106 -898 1685 -918 1704 -26 23 -37 27 -66 22 -20 -3 -46 -16
-58 -28 -13 -13 -158 -268 -324 -568 -166 -300 -305 -548 -308 -552 -4 -4
-142 248 -307 559 -314 591 -315 593 -379 593 -14 0 -39 -12 -55 -27z"/>
</g>
</svg>
