<?xml version="1.0" standalone="no"?>
<!DOCTYPE svg PUBLIC "-//W3C//DTD SVG 20010904//EN"
 "http://www.w3.org/TR/2001/REC-SVG-20010904/DTD/svg10.dtd">
<svg version="1.0" xmlns="http://www.w3.org/2000/svg"
 width="512.000000pt" height="512.000000pt" viewBox="0 0 512.000000 512.000000"
 preserveAspectRatio="xMidYMid meet">

<g transform="translate(0.000000,512.000000) scale(0.100000,-0.100000)"
fill="#000000" stroke="none">
<path d="M1285 2569 c-698 -1127 -1271 -2054 -1273 -2059 -3 -7 876 -10 2548
-10 1672 0 2551 3 2548 10 -6 18 -2543 4109 -2548 4109 -3 0 -576 -922 -1275
-2050z m2365 -102 l1085 -1752 -1087 -3 c-599 -1 -1577 -1 -2176 0 l-1087 3
1085 1752 c597 964 1087 1752 1090 1752 3 0 493 -788 1090 -1752z"/>
</g>
</svg>
